<svg viewBox="0 0 141.73 142.69" id="Tikkurila-logo"><title>Tikkurila-logo</title><g clip-path="url(#clip-path)"><path fill="#ef4135" d="M.03.99h141.7v141.7H.03z"></path></g><g clip-path="url(#clip-path)"><text transform="translate(0 6.4)" style="isolation:isolate" font-size="7.457" font-family="Arial"></text></g><g clip-path="url(#clip-path)"><path d="M103.33 124.89a1.45 1.45 0 0 1-1.7-1.7v-12.6a2.17 2.17 0 0 1 .2-1.2 1.43 1.43 0 0 1 1.3-.7 1.39 1.39 0 0 1 1.2.7 2.17 2.17 0 0 1 .2 1.2v11.6h5.1a1.82 1.82 0 0 1 1.1.2 1.25 1.25 0 0 1 .6 1.1 1.15 1.15 0 0 1-.6 1.1 1.82 1.82 0 0 1-1.1.2h-6.3v.1zm-81.8.1a1.39 1.39 0 0 1-1.2-.7 2.17 2.17 0 0 1-.2-1.2v-11.6h-2.6a1.82 1.82 0 0 1-1.1-.2 1.25 1.25 0 0 1-.6-1.1 1.15 1.15 0 0 1 .6-1.1 1.82 1.82 0 0 1 1.1-.2h8.2a1.82 1.82 0 0 1 1.1.2 1.25 1.25 0 0 1 .6 1.1 1.15 1.15 0 0 1-.6 1.1 1.82 1.82 0 0 1-1.1.2h-2.6v11.6a2.17 2.17 0 0 1-.2 1.2 1.91 1.91 0 0 1-1.4.7m9.6 0a1.71 1.71 0 0 1-1.3-.7 2.17 2.17 0 0 1-.2-1.2v-12.5a2.17 2.17 0 0 1 .2-1.2 1.43 1.43 0 0 1 1.3-.7 1.39 1.39 0 0 1 1.2.7 2.17 2.17 0 0 1 .2 1.2v12.5a2.17 2.17 0 0 1-.2 1.2 1.27 1.27 0 0 1-1.2.7m15.6 0a1.64 1.64 0 0 1-1.4-1.1l-3.7-6.5-2.3 2.8v2.9a2.17 2.17 0 0 1-.2 1.2 1.43 1.43 0 0 1-1.3.7 1.39 1.39 0 0 1-1.2-.7 2.17 2.17 0 0 1-.2-1.2v-12.5a2.17 2.17 0 0 1 .2-1.2 1.43 1.43 0 0 1 1.3-.7 1.71 1.71 0 0 1 1.3.7 2.17 2.17 0 0 1 .2 1.2v5.4l5.4-6.5a1.56 1.56 0 0 1 1.3-.8 1.35 1.35 0 0 1 1.4 1.4 1.93 1.93 0 0 1-.6 1.2l-3.2 3.8 4.1 7.3a1.86 1.86 0 0 1 .4 1.1 1.31 1.31 0 0 1-.7 1.2 1.6 1.6 0 0 1-.8.3m14.4 0a1.64 1.64 0 0 1-1.4-1.1l-3.7-6.5-2.3 2.8v2.9a2.17 2.17 0 0 1-.2 1.2 1.43 1.43 0 0 1-1.3.7 1.71 1.71 0 0 1-1.3-.7 2.17 2.17 0 0 1-.2-1.2v-12.5a2.17 2.17 0 0 1 .2-1.2 1.43 1.43 0 0 1 1.3-.7 1.39 1.39 0 0 1 1.2.7 2.17 2.17 0 0 1 .2 1.2v5.4l5.4-6.5a1.56 1.56 0 0 1 1.3-.8 1.35 1.35 0 0 1 1.4 1.4 1.93 1.93 0 0 1-.6 1.2l-3.2 3.8 4.2 7.3a1.86 1.86 0 0 1 .4 1.1 1.31 1.31 0 0 1-.7 1.2 1.08 1.08 0 0 1-.7.3m25.2-9.2c1.5 0 2.4-.8 2.4-2.1a2.16 2.16 0 0 0-2.4-2.2h-3.2v4.3h3.2zm3.9 9.2a1.64 1.64 0 0 1-1.4-1.1l-3.2-5.5h-2.5v4.7a2.17 2.17 0 0 1-.2 1.2 1.43 1.43 0 0 1-1.3.7 1.39 1.39 0 0 1-1.2-.7 2.17 2.17 0 0 1-.2-1.2v-12.6a1.45 1.45 0 0 1 1.7-1.7h4.6c3 0 5.1 1.9 5.1 4.8a4.46 4.46 0 0 1-2.9 4.3l2.6 4.5a1.86 1.86 0 0 1 .4 1.1 1.31 1.31 0 0 1-.7 1.2 1.6 1.6 0 0 1-.8.3m6.1 0a1.71 1.71 0 0 1-1.3-.7 2.17 2.17 0 0 1-.2-1.2v-12.5a2.17 2.17 0 0 1 .2-1.2 1.43 1.43 0 0 1 1.3-.7 1.39 1.39 0 0 1 1.2.7 2.17 2.17 0 0 1 .2 1.2v12.5a2.17 2.17 0 0 1-.2 1.2 1.39 1.39 0 0 1-1.2.7m25.2-5.8l-2.1-5.7-2.1 5.7h4.2zm3 5.8a1.14 1.14 0 0 1-.8-.3 1.9 1.9 0 0 1-.6-1l-.7-1.9h-6l-.7 1.9a1.9 1.9 0 0 1-.6 1 1.14 1.14 0 0 1-.8.3 2.1 2.1 0 0 1-1.1-.4 1.51 1.51 0 0 1-.1-1.8l4.7-12.6a2.37 2.37 0 0 1 .5-.9 1.37 1.37 0 0 1 1.1-.4 1.5 1.5 0 0 1 1.1.4 1.93 1.93 0 0 1 .5.9l4.8 12.6a1.67 1.67 0 0 1-.1 1.9 5.27 5.27 0 0 1-1.2.3m-53.7 0a5.52 5.52 0 0 1-5.8-5.6v-8.8a2.17 2.17 0 0 1 .2-1.2 1.43 1.43 0 0 1 1.3-.7 1.39 1.39 0 0 1 1.2.7 2.17 2.17 0 0 1 .2 1.2v8.7a2.91 2.91 0 1 0 5.8 0v-8.7a2.17 2.17 0 0 1 .2-1.2 1.43 1.43 0 0 1 1.3-.7 1.39 1.39 0 0 1 1.2.7 2.17 2.17 0 0 1 .2 1.2v8.8a5.52 5.52 0 0 1-5.8 5.6" fill="#fff"></path></g><g clip-path="url(#clip-path)"><path d="M99.53 84.39l-1.4 7.1a3.4 3.4 0 0 1-3.1 2.6h-48.3a3.31 3.31 0 0 1-3.1-2.6l-1.6-8.2m0 0l-7.6-39a6.1 6.1 0 0 1 8.4 5.1 6.7 6.7 0 0 1-.5 3.7 7.54 7.54 0 0 1 1.5 15 5.38 5.38 0 0 1-3.3-.5 4.87 4.87 0 0 0 .1 1.2c1 7.8 6.1 11.2 14 11.2 6.9 0 14.2-4.4 14.2-12.3a8.6 8.6 0 0 0-.1-1.6 7.14 7.14 0 0 1-4.3 1.4 7.5 7.5 0 0 1-.3-15 7.4 7.4 0 0 1-.9-3.6 7.5 7.5 0 0 1 15 0 7.4 7.4 0 0 1-.9 3.6 7.5 7.5 0 0 1-.3 15 7.14 7.14 0 0 1-4.3-1.4 8.6 8.6 0 0 0-.1 1.6c0 7.9 7 12.3 14.3 12.3 7.9 0 13-3.4 14-11.3 0-.4.1-.8.1-1.2a5.86 5.86 0 0 1-3.2.5 7.54 7.54 0 0 1 1.5-15 9 9 0 0 1-.5-3.7c.5-4.1 4.3-6.4 8.4-5.1l-7.9 40.2" fill="#fff"></path></g></svg>